<svg width="18" height="18" viewBox="0 0 18 18" fill="none" xmlns="http://www.w3.org/2000/svg">
<path d="M16.6467 15.6105L11.5364 10.5003C12.3294 9.47509 12.7584 8.22163 12.7584 6.90324C12.7584 5.32511 12.1425 3.84536 11.0287 2.72965C9.91499 1.61394 8.43131 1 6.85515 1C5.27898 1 3.7953 1.6159 2.68155 2.72965C1.56584 3.84339 0.951904 5.32511 0.951904 6.90324C0.951904 8.47941 1.56781 9.96309 2.68155 11.0768C3.7953 12.1925 5.27701 12.8065 6.85515 12.8065C8.17354 12.8065 9.42502 12.3775 10.4502 11.5865L15.5605 16.6948C15.5754 16.7097 15.5932 16.7216 15.6128 16.7298C15.6324 16.7379 15.6534 16.742 15.6746 16.742C15.6958 16.742 15.7168 16.7379 15.7364 16.7298C15.7559 16.7216 15.7737 16.7097 15.7887 16.6948L16.6467 15.8388C16.6616 15.8238 16.6735 15.806 16.6817 15.7864C16.6898 15.7668 16.694 15.7459 16.694 15.7247C16.694 15.7035 16.6898 15.6825 16.6817 15.6629C16.6735 15.6433 16.6616 15.6255 16.6467 15.6105ZM9.97206 10.0202C9.13773 10.8525 8.03186 11.311 6.85515 11.311C5.67843 11.311 4.57256 10.8525 3.73823 10.0202C2.90588 9.18583 2.44739 8.07995 2.44739 6.90324C2.44739 5.72653 2.90588 4.61869 3.73823 3.78633C4.57256 2.95397 5.67843 2.49549 6.85515 2.49549C8.03186 2.49549 9.1397 2.95201 9.97206 3.78633C10.8044 4.62066 11.2629 5.72653 11.2629 6.90324C11.2629 8.07995 10.8044 9.1878 9.97206 10.0202Z" fill="#EA3E2A" stroke="#FF4949" stroke-width="0.839572"/>
</svg>
